# xmcd
#
# Track frame offsets:
#	150
#	18915
#	40603
#	55973
#	72075
#	98778
#	111555
#	128833
#	146165
#	169353
#	191098
#	204705
#
# Disc length: 2962 seconds
# Revision: 0
# Processed by: cddbd v1.5.2PL0 Copyright (c) Steve Scherf et al.
# Submitted via: dBpowerAMP V12.0
#
DISCID=b30b900c
DTITLE=Various Artist - Blue Monday - Stax Blues Masters
DYEAR=1991
DGENRE=Blues
TTITLE0=Little Sonny - Things That I Used to Do
TTITLE1=Little Sonny - Blues With A Feeling
TTITLE2=Albert King - Driving Wheel
TTITLE3=Albert King - Bad Luck/More Bad Luck [Instrumental]
TTITLE4=Albert King - Born Under A Bad Sign
TTITLE5=Freddie Robinson - Creeper
TTITLE6=Freddie Robinson - I Wonder
TTITLE7=Freddie Robinson - After Hours
TTITLE8=Little Milton - Open The Door To Your Heart
TTITLE9=Little Milton - Blue Monday
TTITLE10=Freddie Robinson - River's Invitation
TTITLE11=Little Sonny - It's Hard Going Up (But Twice As Hard Coming Down)
EXTD=
EXTT0=
EXTT1=
EXTT2=
EXTT3=
EXTT4=
EXTT5=
EXTT6=
EXTT7=
EXTT8=
EXTT9=
EXTT10=
EXTT11=
PLAYORDER=
